<svg xmlns="http://www.w3.org/2000/svg" viewBox="0 0 720 840" role="img" aria-label="Ilustração de Lucas Freire Martins"><defs><radialGradient id="halo"><stop stop-color="#ffe56b"/><stop offset=".55" stop-color="#f4c400"/><stop offset="1" stop-color="#6b4d00"/></radialGradient><linearGradient id="skin" x2="1" y2="1"><stop stop-color="#e5a27b"/><stop offset="1" stop-color="#b96d4e"/></linearGradient><linearGradient id="hood" x2="1" y2="1"><stop stop-color="#1b2027"/><stop offset="1" stop-color="#05070a"/></linearGradient></defs><circle cx="390" cy="410" r="310" fill="url(#halo)" opacity=".9"/><path d="M105 840c30-190 130-286 282-286 155 0 258 98 293 286Z" fill="url(#hood)"/><path d="M285 550h202l-24 118c-22 47-128 47-153 0Z" fill="url(#skin)"/><ellipse cx="388" cy="365" rx="178" ry="220" fill="url(#skin)"/><path d="M214 342c-8-145 67-254 184-254 110 0 184 83 179 216-36-58-94-90-164-94-87-5-153 40-199 132Z" fill="#11151a"/><path d="M225 248c34-106 117-171 220-147 60 14 105 53 130 107-65-39-145-46-216-20-57 21-98 47-134 60Z" fill="#090c10"/><ellipse cx="214" cy="390" rx="31" ry="49" fill="#ce8463"/><ellipse cx="562" cy="390" rx="31" ry="49" fill="#ce8463"/><path d="M542 360c35-3 55 20 54 55-1 27-13 44-36 51" fill="none" stroke="#090c10" stroke-width="17" stroke-linecap="round"/><rect x="237" y="317" width="133" height="89" rx="23" fill="#090c10"/><rect x="405" y="317" width="133" height="89" rx="23" fill="#090c10"/><rect x="251" y="331" width="105" height="61" rx="14" fill="#d99b78"/><rect x="419" y="331" width="105" height="61" rx="14" fill="#d99b78"/><path d="M370 348h35M239 337l-39-18M537 337l43-22" stroke="#090c10" stroke-width="15" stroke-linecap="round"/><ellipse cx="315" cy="362" rx="13" ry="15" fill="#080a0d"/><ellipse cx="461" cy="362" rx="13" ry="15" fill="#080a0d"/><circle cx="311" cy="357" r="4" fill="#fff"/><circle cx="457" cy="357" r="4" fill="#fff"/><path d="M359 419c15 10 38 10 56-2" fill="none" stroke="#874a38" stroke-width="8" stroke-linecap="round"/><path d="M265 430c23 12 43 10 62-5M450 425c20 14 42 16 64 4" fill="none" stroke="#15191d" stroke-width="18" stroke-linecap="round"/><path d="M273 447c12 102 53 153 115 153 65 0 107-53 116-153-28 29-65 43-114 43-51 0-89-14-117-43Z" fill="#15191d"/><path d="M301 480c21 20 48 29 87 29 39 0 68-10 89-31-10 52-42 84-89 84-46 0-77-30-87-82Z" fill="#e0a07b"/><path d="M322 511c18 14 40 21 66 21 27 0 49-8 66-23" fill="none" stroke="#f3d5c5" stroke-width="9" stroke-linecap="round"/><path d="M285 596 387 701l101-105 58 36-79 122-80-53-80 53-80-122Z" fill="#090c10"/><path d="M387 701l-39-45h78Z" fill="#f4c400"/></svg>